<svg xmlns="http://www.w3.org/2000/svg" viewBox="0 0 42.67 42.67"><defs><style>.cls-1{fill:#fff;}</style></defs><title>Asset 1</title><g id="Layer_2" data-name="Layer 2"><g id="Capa_1" data-name="Capa 1"><path class="cls-1" d="M21.34,0A21.34,21.34,0,1,0,42.67,21.34,21.33,21.33,0,0,0,21.34,0Zm13,21A12.72,12.72,0,0,1,21.57,33.68,12.86,12.86,0,0,1,15.4,32.1L8.33,34.35l2.3-6.8A12.57,12.57,0,0,1,8.8,21c0-.18,0-.37,0-.55a12.78,12.78,0,0,1,25.53.23Z"/><path class="cls-1" d="M32.27,20.17A10.74,10.74,0,0,0,10.89,20a8.77,8.77,0,0,0-.06,1,10.54,10.54,0,0,0,2.05,6.25l-1.34,4,4.12-1.32A10.74,10.74,0,0,0,32.31,21,7.69,7.69,0,0,0,32.27,20.17ZM27.84,25.4a3.13,3.13,0,0,1-2.11,1.47c-.58.06-.58.47-3.76-.77a13,13,0,0,1-5.35-4.69,7.2,7.2,0,0,1-1.12-2.15,4.25,4.25,0,0,1-.16-1.06,3.48,3.48,0,0,1,1.1-2.6,1.14,1.14,0,0,1,.83-.39c.21,0,.42,0,.6,0s.45-.1.71.52.89,2.15,1,2.31a.57.57,0,0,1,0,.54,3.09,3.09,0,0,1-.2.37l-.11.15c-.16.18-.33.4-.47.54s-.32.33-.14.64a9,9,0,0,0,1.74,2.14A8.34,8.34,0,0,0,22.91,24c.31.15.49.13.68-.08s.78-.9,1-1.21.42-.27.7-.16,1.83.86,2.15,1,.52.23.59.36A2.57,2.57,0,0,1,27.84,25.4Z"/></g></g></svg>